<?xml version="1.0" standalone="no"?>
<svg viewBox="0 0 1024 1024" version="1.1" xmlns="http://www.w3.org/2000/svg"
     width="256" height="256">
    <path d="M780.8 530.7c0 152.9-121.6 274.5-274.5 274.5-149.4 0-271-121.6-271-274.5 0-149.4 121.6-271 271-271 152.9-0.1 274.5 121.6 274.5 271zM551.5 162.3c0 24.3-17.4 41.7-41.7 41.7-24.3 0-41.7-17.4-41.7-41.7v-48.6c0-24.3 17.4-41.7 41.7-41.7 24.3 0 41.7 17.4 41.7 41.7v48.6zM551.5 947.7c0 20.8-17.4 41.7-41.7 41.7-24.3 0-41.7-20.8-41.7-41.7V899c0-24.3 17.4-41.7 41.7-41.7 24.3 0 41.7 17.4 41.7 41.7v48.7zM878.1 489c-24.3 0-41.7 17.4-41.7 41.7 0 24.3 17.4 41.7 41.7 41.7h48.6c20.8 0 41.7-17.4 41.7-41.7 0-24.3-20.9-41.7-41.7-41.7h-48.6zM92.8 489c-24.3 0-41.7 17.4-41.7 41.7 0 24.3 17.4 41.7 41.7 41.7h48.6c24.3 0 41.7-17.4 41.7-41.7 0-24.3-17.4-41.7-41.7-41.7H92.8zM819.1 746.1c-17.4-17.4-41.7-13.9-59.1 0-13.9 17.4-13.9 45.2 0 59.1l38.2 34.7c17.4 17.4 41.7 13.9 59.1 0 13.9-17.4 13.9-45.2-3.5-59.1l-34.7-34.7zM252.6 204c-17.4-13.9-45.2-13.9-59.1 3.5-17.4 17.4-17.4 41.7 0 59.1l38.2 31.3c13.9 17.4 41.7 17.4 55.6 0 17.4-17.4 17.4-41.7 0-59.1L252.6 204zM231.8 746.1c13.9-17.4 41.7-13.9 55.6 0 17.4 17.4 17.4 45.2 0 59.1L252.6 840c-17.4 17.4-45.2 13.9-59.1 0-17.4-17.4-17.4-45.2 0-59.1l38.3-34.8zM798.2 204c17.4-13.9 41.7-13.9 59.1 3.5 13.9 17.4 13.9 41.7-3.5 59.1L819 297.9c-17.4 17.4-41.7 17.4-59.1 0-13.9-17.4-13.9-41.7 0-59.1l38.3-34.8z"
          fill="#ffffff" stroke="black" stroke-width="40"/>
</svg>