<?xml version="1.0" encoding="utf-8"?>
<svg viewBox="0 0 1024 1024" xmlns="http://www.w3.org/2000/svg">
    <path d="M 512 64 C 531.6 64 551 65.3 570.2 67.8 C 604.6 72.3 619.6 113.7 596 139.1 C 555.624 182.428 533.213 239.475 533.3 298.7 C 533.3 428.3 638.4 533.4 768 533.4 C 813.3 533.4 856.6 520.6 893.9 496.8 C 923.1 478.2 961.2 500.3 959.5 534.9 C 947.5 772.5 750.9 960 512 960 C 264.6 960 64 759.4 64 512 C 64 264.6 264.6 64 512 64 Z"
          fill="white" stroke="black" stroke-width="40"/>
    <path d="M 784.8 234.7 l -130.7 117.6 C 625.1 378.5 643.6 426.7 682.7 426.7 h 213.3 a 42.7 42.7 0 1 0 0 -85.3 h -102.1 l 130.7 -117.6 C 953.6 197.5 935.1 149.3 896 149.3 H 682.7 a 42.7 42.7 0 1 0 0 85.3 h 102.1 z"
          fill="white" stroke="black" stroke-width="40"/>
</svg>