<?xml version="1.0" encoding="utf-8"?>
<svg viewBox="0 0 1024 1024" xmlns="http://www.w3.org/2000/svg">
  <path d="M 749.376 688 L 274.624 688 C 200.863 505.256 352.59 311.192 547.731 338.686 C 712.511 361.902 811.692 533.689 749.408 688 L 749.376 688 Z M 512 144 C 529.673 144 544 158.327 544 176 L 544 272 C 544 296.634 517.333 312.03 496 299.713 C 486.099 293.997 480 283.432 480 272 L 480 176 C 480 158.327 494.327 144 512 144 Z M 828.8 275.2 C 841.314 287.7 841.314 307.98 828.8 320.48 L 760.896 388.352 C 743.177 405.465 713.578 396.98 707.616 373.079 C 704.946 362.371 707.981 351.042 715.648 343.104 L 783.52 275.2 C 796.016 262.708 816.272 262.708 828.768 275.2 L 828.8 275.2 Z M 960 592 C 960 609.673 945.673 624 928 624 L 832 624 C 807.366 624 791.97 597.333 804.287 576 C 810.003 566.099 820.568 560 832 560 L 928 560 C 945.673 560 960 574.327 960 592 Z M 64 592 C 64 574.327 78.327 560 96 560 L 192 560 C 216.634 560 232.03 586.667 219.713 608 C 213.997 617.901 203.432 624 192 624 L 96 624 C 78.327 624 64 609.673 64 592 Z M 195.2 275.2 C 207.7 262.686 227.98 262.686 240.48 275.2 L 308.352 343.104 C 326.071 360.217 318.619 390.094 294.939 396.882 C 283.567 400.142 271.323 396.862 263.104 388.352 L 195.2 320.48 C 182.708 307.984 182.708 287.728 195.2 275.232 L 195.2 275.2 Z M 96 688 L 928 688 C 952.634 688 968.03 714.667 955.713 736 C 949.997 745.901 939.432 752 928 752 L 96 752 C 71.366 752 55.97 725.333 68.287 704 C 74.003 694.099 84.568 688 96 688 Z M 96 816 L 928 816 C 952.634 816 968.03 842.667 955.713 864 C 949.997 873.901 939.432 880 928 880 L 96 880 C 71.366 880 55.97 853.333 68.287 832 C 74.003 822.099 84.568 816 96 816 Z" fill="#ffffff" stroke="black" stroke-width="20"/>
</svg>