<svg width="1988" height="1987" xmlns="http://www.w3.org/2000/svg" xmlns:xlink="http://www.w3.org/1999/xlink" xml:space="preserve" overflow="hidden"><defs><linearGradient x1="882.5" y1="243.5" x2="2869.5" y2="2231.5" gradientUnits="userSpaceOnUse" spreadMethod="reflect" id="fill0"><stop offset="0" stop-color="#FFFFFF"/><stop offset="0.49" stop-color="#F2F2F2"/><stop offset="0.75" stop-color="#D9D9D9"/><stop offset="1" stop-color="#F2F2F2"/></linearGradient></defs><g transform="translate(-882 -244)"><path d="M882 682.332C882 440.248 1078.25 244 1320.33 244L2431.67 244C2673.75 244 2870 440.248 2870 682.332L2870 1792.67C2870 2034.75 2673.75 2231 2431.67 2231L1320.33 2231C1078.25 2231 882 2034.75 882 1792.67Z" fill="url(#fill0)" fill-rule="evenodd"/><g><g><g><path d="M883.764 1311.17C879.362 1311.17 874.959 1311.17 870.048 1311 869.201 1311 868.524 1310.32 868.355 1309.47 868.185 1308.63 868.863 1307.78 869.879 1307.78 912.382 1301.69 942.863 1289.66 953.869 1274.93 957.087 1270.53 958.442 1266.12 957.764 1261.89 955.224 1245.64 922.881 1235.81 871.234 1235.81 858.533 1235.81 844.648 1236.49 830.085 1237.68 794.524 1240.56 758.456 1249.19 731.362 1261.04 731.193 1261.21 730.854 1261.21 730.685 1261.21 730.177 1261.21 729.499 1260.88 729.161 1260.37 728.653 1259.69 728.822 1258.67 729.499 1258.17 752.021 1240.39 797.403 1217.53 885.288 1209.23 896.126 1208.21 907.133 1207.7 917.801 1207.7 951.16 1207.7 981.979 1212.78 1004.16 1222.27 1028.04 1232.26 1040.57 1245.97 1040.57 1262.23 1040.57 1289.32 971.65 1311.17 883.764 1311.17ZM887.151 1101.02C649.234 1101.02 534.763 1016.86 480.575 946.249 480.067 945.572 480.067 944.556 480.745 944.048 481.083 943.709 481.591 943.54 481.93 943.54 482.269 943.54 482.607 943.709 482.946 943.879 609.271 1039.55 767.431 1044.46 797.911 1044.46L802.822 1044.46C828.392 1047.85 853.623 1049.54 878.176 1049.54 1064.11 1049.54 1187.89 953.023 1209.4 791.138 1209.57 789.952 1225.31 664.474 1259.52 587.088 1259.86 586.41 1260.37 586.072 1261.04 586.072L1261.55 586.072C1262.4 586.41 1262.91 587.088 1262.74 587.934 1255.12 628.236 1253.93 671.417 1252.58 726.113 1251.56 768.955 1250.21 817.554 1245.8 878.346 1240.89 927.961 1201.95 982.826 1141.83 1025.16 1072.24 1074.1 981.81 1101.02 887.151 1101.02Z" transform="matrix(1 0 0 1.00058 1009 370)"/><path d="M846.68 1452.56C687.165 1452.56 537.134 1434.95 424.356 1402.78 310.901 1370.44 248.416 1327.26 248.416 1281.2 248.416 1252.92 271.276 1226.16 316.15 1201.61 358.654 1178.41 420.461 1157.92 494.969 1142.34L495.308 1142.34C495.985 1142.34 496.662 1142.85 497.001 1143.53 497.17 1144.37 496.662 1145.22 495.816 1145.56 406.237 1174.34 356.791 1211.26 356.791 1249.36 356.791 1291.02 414.196 1330.3 518.507 1360.11 623.495 1390.08 763.028 1406.5 911.535 1406.5 1167.57 1406.5 1379.58 1362.14 1439.19 1296.27 1439.53 1295.93 1440.03 1295.76 1440.37 1295.76 1440.71 1295.76 1440.88 1295.76 1441.22 1295.93 1441.9 1296.27 1442.23 1297.11 1441.9 1297.96 1427.67 1340.29 1359.26 1379.41 1249.36 1408.03 1139.29 1436.65 996.203 1452.56 846.68 1452.56ZM1389.23 898.497C1386.35 898.497 1383.47 896.634 1382.29 893.755 1381.1 890.876 1381.61 887.998 1383.81 885.796 1391.09 878.346 1385.17 870.218 1374.84 857.687 1365.36 846.341 1354.69 833.641 1361.29 819.755 1369.59 802.483 1388.55 778.607 1406.84 755.577 1421.58 737.119 1435.46 719.678 1443.93 705.623 1458.15 682.424 1471.53 631.115 1472.04 598.095 1471.53 520.877 1428.69 470.415 1357.06 463.134 1354.35 462.795 1351.64 462.795 1348.76 462.795 1312.18 462.795 1271.54 487.518 1228.36 536.287 1165.03 607.747 965.046 645.847 844.986 645.847 728.991 645.847 619.939 628.236 537.811 596.401 455.175 564.227 409.793 521.385 409.793 475.665 409.793 435.193 446.708 392.182 511.056 357.807 577.605 322.246 666.676 298.709 761.842 291.427 764.383 291.258 767.431 291.089 770.987 290.919 793.508 289.395 835.165 286.686 882.918 286.686 910.011 286.686 935.412 287.532 958.611 289.395L959.458 289.395C982.657 291.089 1060.38 297.523 1082.56 309.377 1083.24 309.715 1083.58 310.562 1083.41 311.409 1083.24 312.086 1082.56 312.594 1081.89 312.594L1081.72 312.594C1041.08 306.498 958.78 304.466 958.103 304.466 952.853 304.297 947.435 304.297 942.016 304.297 866.831 304.297 793.847 313.272 770.309 317.674 622.648 345.107 517.999 412.164 521.385 477.189 523.417 513.257 557.623 544.584 620.278 567.445 681.239 589.628 765.737 601.82 857.856 601.82 874.79 601.82 892.231 601.481 909.673 600.635 950.313 598.772 1156.06 586.072 1214.65 523.248 1256.47 478.543 1303.89 427.912 1366.54 427.912L1369.42 427.912C1440.03 429.605 1517.76 488.534 1520.98 573.541 1524.36 609.102 1504.04 678.021 1489.82 699.358 1473.73 723.742 1460.35 738.305 1447.48 752.529 1434.95 766.245 1423.27 779.115 1410.91 799.266 1401.93 813.829 1403.96 831.778 1405.83 849.22 1408.03 869.54 1410.23 888.675 1393.47 897.989 1391.77 898.158 1390.59 898.497 1389.23 898.497Z" transform="matrix(1 0 0 1.00058 1009 370)"/></g></g></g></g></svg>